<svg xmlns="http://www.w3.org/2000/svg" width="200" height="200" viewBox="0 0 264.58 48.746" fill="#0078d4"><path d="M95.55 38.885h-6.016l-5.866-22.328-5.93 22.328H71.59L63.524 9.863h5.456l5.816 23.085 6.35-23.085h5.511l5.968 23.222L98.15 9.863h5.268zm15.58-26.899c0 .785-.289 1.438-.867 1.962-.564.523-1.253.785-2.065.785s-1.5-.262-2.065-.785a2.56 2.56 0 0 1-.847-1.962 2.65 2.65 0 0 1 .847-2.003 2.93 2.93 0 0 1 2.065-.805c.84 0 1.535.275 2.085.826a2.67 2.67 0 0 1 .847 1.982zm-5.442 26.898V17.969h4.876v20.915zm23.642.001V27.24c0-3.051-.946-5.683-4.02-5.683-3.058 0-4.997 2.753-4.997 5.539v11.789h-4.769V17.97h4.769v2.958h.083c1.583-2.451 3.868-3.311 6.855-3.311 2.244 0 3.978.552 5.203 1.984 1.239 1.431 1.783 3.606 1.783 6.525v12.759zm23.95 0v-2.692h-.083c-1.514 2.547-4.605 3.134-6.76 3.134-6.404 0-8.754-4.975-8.754-10.269 0-3.51.874-6.318 2.622-8.424 1.762-2.12 4.116-3.037 7.061-3.037 4.586 0 5.831 2.551 5.831 2.551h.083V8.043h4.947v30.842zm.041-11.918c0-2.526-1.624-5.397-5.05-5.397-3.92 0-5.443 3.411-5.443 7.343 0 3.433 1.438 6.548 5.171 6.6 3.66 0 5.294-3.489 5.323-6.373zm29.865 1.368c0 7.245-4.33 11.169-10.832 11.169-7.071 0-10.695-4.233-10.695-10.715 0-7.416 4.343-11.273 11.211-11.273 6.293 0 10.316 4.023 10.316 10.819zm-5.079.165c0-3.223-1.142-6.806-5.505-6.806-4.184 0-5.81 3.114-5.81 6.93 0 4.146 1.952 6.782 5.78 6.782 4.1 0 5.505-3.147 5.535-6.906zm31.249 10.385h-5.381l-4.113-15.137-4.413 15.137h-5.223l-6.085-20.851h5.106l3.974 16.199 4.644-16.199h4.789l4.141 16.157 3.873-16.157h4.68zm21.309-5.822c0 4.657-4.222 6.471-8.455 6.471-2.757 0-5.502-1.062-5.502-1.062V33.52s2.386 2.079 5.719 2.105c2.285 0 3.314-.721 3.314-2.092.056-1.101-.614-1.708-1.415-2.163-.551-.33-1.411-.736-2.581-1.218-1.376-.592-2.402-1.163-3.076-1.714a5.32 5.32 0 0 1-1.487-1.941c-.317-.743-.55-1.56-.55-2.551 0-3.76 3.136-6.417 8.149-6.417 3.313 0 4.749.812 4.749.812v4.705s-2.355-1.627-4.801-1.642c-1.753 0-3.078.638-3.102 2.083-.012 1.862 2.267 2.769 3.628 3.32 1.982.798 3.433 1.651 4.245 2.628s1.165 1.961 1.165 3.628zm19.184-24.046v29.868h-4.989V15.06s-1.711 1.58-6.102 2.725v-4.252c6.526-2.413 8.868-4.517 8.868-4.517zM0 0h23.105v23.105H0zm25.64 0h23.105v23.105H25.64zM0 25.642h23.105v23.105H0zm25.64 0h23.105v23.105H25.64zM264.583 9.017v29.868h-4.989V15.06s-1.711 1.58-6.102 2.725v-4.252c6.526-2.413 8.868-4.517 8.868-4.517z"/></svg>