<?xml version="1.0" encoding="utf-8"?>
<!-- Generator: Adobe Illustrator 25.0.1, SVG Export Plug-In . SVG Version: 6.00 Build 0)  -->
<svg version="1.0" id="katman_1" xmlns="http://www.w3.org/2000/svg" xmlns:xlink="http://www.w3.org/1999/xlink" x="0px" y="0px"
	 viewBox="0 0 1208 818.9" style="enable-background:new 0 0 1208 818.9;" xml:space="preserve">
<style type="text/css">
	.st0{fill:var(--ifm-color-primary);}
</style>
<g transform="translate(271.22 -22.579)">
	<path class="st0" d="M193.9,486.9h-22.7L149,402.5l-22.4,84.4h-23.2L72.9,377.2h20.6l22,87.3l24-87.3h20.8l22.6,87.8l20.9-87.8
		h19.9L193.9,486.9z"/>
	<path class="st0" d="M252.8,385.2c0,3-1.1,5.4-3.3,7.4c-2.1,2-4.7,3-7.8,3c-3.1,0-5.7-1-7.8-3c-2.1-2-3.2-4.4-3.2-7.4
		c0-3,1.1-5.5,3.2-7.6c2.2-2,4.8-3,7.8-3c3.2,0,5.8,1,7.9,3.1C251.7,379.8,252.8,382.3,252.8,385.2L252.8,385.2z M232.2,486.9v-79
		h18.4v79H232.2z"/>
	<path class="st0" d="M321.6,486.9v-44c0-11.5-3.6-21.5-15.2-21.5c-11.6,0-18.9,10.4-18.9,20.9v44.6h-18v-79h18V419h0.3
		c6-9.3,14.6-12.5,25.9-12.5c8.5,0,15,2.1,19.7,7.5c4.7,5.4,6.7,13.6,6.7,24.7v48.2L321.6,486.9z"/>
	<path class="st0" d="M412.1,486.9v-10.2h-0.3c-5.7,9.6-17.4,11.8-25.5,11.8c-24.2,0-33.1-18.8-33.1-38.8c0-13.3,3.3-23.9,9.9-31.8
		c6.7-8,15.6-11.5,26.7-11.5c17.3,0,22,9.6,22,9.6h0.3v-45.7h18.7v116.6L412.1,486.9z M412.3,441.8c0-9.5-6.1-20.4-19.1-20.4
		c-14.8,0-20.6,12.9-20.6,27.8c0,13,5.4,24.7,19.5,24.9c13.8,0,20-13.2,20.1-24.1L412.3,441.8z"/>
	<path class="st0" d="M525.1,447c0,27.4-16.4,42.2-40.9,42.2c-26.7,0-40.4-16-40.4-40.5c0-28,16.4-42.6,42.4-42.6
		C509.9,406.1,525.1,421.3,525.1,447z M505.9,447.6c0-12.2-4.3-25.7-20.8-25.7c-15.8,0-22,11.8-22,26.2c0,15.7,7.4,25.6,21.8,25.6
		C500.5,473.7,505.8,461.8,505.9,447.6L505.9,447.6z"/>
	<path class="st0" d="M624.1,486.9h-20.3l-15.5-57.2l-16.7,57.2h-19.7l-23-78.8h19.3l15,61.2l17.6-61.2h18.1l15.7,61.1l14.6-61.1
		h17.7L624.1,486.9z"/>
	<path class="st0" d="M704.6,464.9c0,17.6-16,24.5-32,24.5c-10.4,0-20.8-4-20.8-4v-18.7c0,0,9,7.9,21.6,8c8.6,0,12.5-2.7,12.5-7.9
		c0.2-4.2-2.3-6.5-5.3-8.2c-2.1-1.2-5.3-2.8-9.8-4.6c-5.2-2.2-9.1-4.4-11.6-6.5c-2.5-2.1-4.4-4.5-5.6-7.3c-1.2-2.8-2.1-5.9-2.1-9.6
		c0-14.2,11.9-24.3,30.8-24.3c12.5,0,17.9,3.1,17.9,3.1V427c0,0-8.9-6.2-18.1-6.2c-6.6,0-11.6,2.4-11.7,7.9c0,7,8.6,10.5,13.7,12.5
		c7.5,3,13,6.2,16,9.9C703.3,454.9,704.6,458.6,704.6,464.9L704.6,464.9z"/>
	<path class="st0" d="M777.1,374v112.9h-18.9v-90c0,0-6.5,6-23.1,10.3v-16.1c24.7-9.1,33.5-17.1,33.5-17.1L777.1,374z"/>
	<rect x="-167.2" y="339.9" class="st0" width="87.3" height="87.3"/>
	<rect x="-70.3" y="339.9" class="st0" width="87.3" height="87.3"/>
	<rect x="-167.2" y="436.8" class="st0" width="87.3" height="87.3"/>
	<rect x="-70.3" y="436.8" class="st0" width="87.3" height="87.3"/>
	<path class="st0" d="M832.8,374v112.9h-18.9v-90c0,0-6.5,6-23.1,10.3v-16.1c24.7-9.1,33.5-17.1,33.5-17.1L832.8,374z"/>
</g>
</svg>
